<?xml version="1.0" encoding="utf-8"?>
<!-- Generator: Adobe Illustrator 25.4.1, SVG Export Plug-In . SVG Version: 6.00 Build 0)  -->
<svg version="1.1" id="Layer_1" xmlns="http://www.w3.org/2000/svg" xmlns:xlink="http://www.w3.org/1999/xlink" x="0px" y="0px"
	 viewBox="0 0 200 200" style="enable-background:new 0 0 200 200;" xml:space="preserve">
<style type="text/css">
	.st0{fill:none;}
	.st1{font-family:'MyriadPro-Regular';}
	.st2{font-size:12px;}
</style>
<g>
	<g>
		<path d="M74.19,41.65c-1.71,9.49-3.43,18.98-5.14,28.48c-1.7,9.42-3.52,18.79-3.3,28.41c0.12,5.39,0.67,10.75,1.22,16.11
			c0.14,1.34,1.05,2.5,2.5,2.5c1.25,0,2.64-1.15,2.5-2.5c-0.95-9.33-1.78-18.66-0.65-28.01c1.12-9.25,3.14-18.43,4.79-27.59
			c0.97-5.35,1.93-10.71,2.9-16.06c0.24-1.33-0.36-2.69-1.75-3.08C76.05,39.57,74.43,40.31,74.19,41.65L74.19,41.65z"/>
	</g>
</g>
<g>
	<g>
		<path d="M68.57,114.75c-3.31,2.88-6.63,5.74-9.92,8.64c-3.05,2.7-6.02,5.49-8.59,8.66c-0.85,1.05-1.02,2.51,0,3.54
			c0.88,0.88,2.68,1.05,3.54,0c2.57-3.16,5.54-5.96,8.59-8.66c3.28-2.9,6.61-5.76,9.92-8.64c1.02-0.89,0.91-2.63,0-3.54
			C71.1,113.74,69.59,113.86,68.57,114.75L68.57,114.75z"/>
	</g>
</g>
<g>
	<g>
		<path d="M48.58,134.68c1.12,12.72,2.79,25.39,5.02,37.96c0.24,1.33,1.86,2.08,3.08,1.75c1.4-0.39,1.98-1.74,1.75-3.08
			c-2.15-12.13-3.76-24.35-4.84-36.63c-0.12-1.35-1.06-2.5-2.5-2.5C49.81,132.18,48.46,133.33,48.58,134.68L48.58,134.68z"/>
	</g>
</g>
<g>
	<g>
		<path d="M50.65,138.52c9.19,2.92,18.3,6.08,27.32,9.48c1.26,0.48,2.74-0.53,3.08-1.75c0.39-1.4-0.48-2.6-1.75-3.08
			c-9.02-3.4-18.13-6.56-27.32-9.48C48.9,132.72,47.59,137.55,50.65,138.52L50.65,138.52z"/>
	</g>
</g>
<g>
	<g>
		<path d="M80.94,148.12c4.38-2.61,8.38-5.9,11.71-9.77c3.01-3.5,5.48-7.71,9.21-10.53c1.07-0.81,1.64-2.16,0.9-3.42
			c-0.62-1.06-2.34-1.72-3.42-0.9c-3.95,3-6.63,7.02-9.77,10.78c-3.16,3.79-6.91,6.99-11.15,9.52
			C75.65,145.45,78.16,149.77,80.94,148.12L80.94,148.12z"/>
	</g>
</g>
<g>
	<g>
		<path d="M102.01,122.39c-9.58-3.47-19.36-6.3-29.34-8.35c-1.32-0.27-2.7,0.38-3.08,1.75c-0.34,1.24,0.42,2.8,1.75,3.08
			c9.99,2.05,19.76,4.87,29.34,8.35c1.27,0.46,2.74-0.52,3.08-1.75C104.13,124.08,103.28,122.86,102.01,122.39L102.01,122.39z"/>
	</g>
</g>
<g>
	<g>
		<path d="M77.8,145.83c-2.8,11.63-3.14,23.65-1.12,35.42c0.23,1.33,1.87,2.08,3.08,1.75c1.41-0.39,1.98-1.74,1.75-3.08
			c-1.87-10.86-1.46-22.06,1.12-32.77C83.37,144.03,78.55,142.69,77.8,145.83L77.8,145.83z"/>
	</g>
</g>
<g>
	<g>
		<path d="M102.38,125.09c-5.05,16.1-1.62,33.07-3.01,49.56c-0.11,1.35,1.23,2.5,2.5,2.5c1.45,0,2.39-1.15,2.5-2.5
			c1.36-16.03-2.07-32.61,2.84-48.23C108.17,123.35,103.35,122.03,102.38,125.09L102.38,125.09z"/>
	</g>
</g>
<g>
	<g>
		<path d="M103.13,124.53c-1.05-20.21-1.71-40.43-1.97-60.66c-0.04-2.9-0.07-5.8-0.09-8.71c-0.01-1.39-0.03-2.77-0.02-4.16
			c0.01-1.11-0.02-2.3,0.48-3.32c0.74-1.51,0.1-3.12-1.49-3.67c-7.44-2.57-15.31-3.83-23.19-3.73c-3.22,0.04-3.22,5.04,0,5
			c7.46-0.09,14.8,1.11,21.86,3.55c-0.5-1.22-1-2.45-1.49-3.67c-1.14,2.32-1.17,4.74-1.16,7.27c0.01,2.57,0.04,5.14,0.06,7.71
			c0.06,5.22,0.14,10.45,0.25,15.67c0.21,10.36,0.53,20.72,0.95,31.08c0.24,5.88,0.51,11.76,0.82,17.64
			C98.29,127.74,103.29,127.76,103.13,124.53L103.13,124.53z"/>
	</g>
</g>
<g>
	<g>
		<path d="M82.02,44.05c-3.41,18.41-2.77,37.18-4.31,55.76c-0.43,5.2-1.05,10.38-2,15.52c-0.24,1.33,0.37,2.7,1.75,3.08
			c1.22,0.33,2.83-0.41,3.08-1.75c3.39-18.41,2.75-37.18,4.29-55.77c0.43-5.2,1.06-10.38,2.01-15.52c0.25-1.33-0.37-2.7-1.75-3.08
			C83.88,41.97,82.27,42.72,82.02,44.05L82.02,44.05z"/>
	</g>
</g>
<g>
	<g>
		<path d="M90.48,45.9c-1.24,9.28-2.47,18.58-2.92,27.94c-0.22,4.58-0.25,9.17,0,13.75c0.26,4.65,1.03,9.25,1.32,13.89
			c0.32,5.24-0.42,10.42-1.22,15.59c-0.21,1.33,0.34,2.69,1.75,3.08c1.19,0.33,2.87-0.4,3.08-1.75c0.73-4.71,1.5-9.46,1.49-14.24
			c-0.01-4.65-0.85-9.25-1.22-13.88c-0.76-9.41-0.23-18.86,0.74-28.23c0.56-5.4,1.28-10.78,1.99-16.16c0.18-1.34-1.28-2.5-2.5-2.5
			C91.48,43.4,90.66,44.55,90.48,45.9L90.48,45.9z"/>
	</g>
</g>
<rect x="112.33" y="142.96" class="st0" width="39.78" height="19.78"/>
<text transform="matrix(1 0 0 1 112.3291 151.4794)" class="st1 st2">Tuali</text>
</svg>
