<?xml version="1.0" encoding="utf-8"?>
<!-- Generator: Adobe Illustrator 25.4.1, SVG Export Plug-In . SVG Version: 6.00 Build 0)  -->
<svg version="1.1" id="Layer_1" xmlns="http://www.w3.org/2000/svg" xmlns:xlink="http://www.w3.org/1999/xlink" x="0px" y="0px"
	 viewBox="0 0 200 200" style="enable-background:new 0 0 200 200;" xml:space="preserve">
<style type="text/css">
	.st0{fill:#414042;}
	.st1{fill:none;}
	.st2{font-family:'MyriadPro-Regular';}
	.st3{font-size:12px;}
</style>
<g>
	<path class="st0" d="M93.89,47.19c-0.13,7.66-0.27,15.32-0.4,22.98c-0.01,0.72-0.06,1.53-0.57,2.04c-0.45,0.45-1.13,0.54-1.73,0.74
		c-2.62,0.85-3.93,3.71-4.8,6.32c-6.6,19.77-4.61,41.21-6.17,61.99c-0.03,0.36-0.04,0.76,0.19,1.03c0.23,0.26,0.6,0.31,0.94,0.34
		c11,1.08,22.08,1.28,33.12,0.61c0.4-6.7,0.55-13.41,0.44-20.12c-0.07-4.47-0.25-8.95,0.18-13.4c0.38-3.81,1.2-7.55,1.76-11.34
		c0.57-3.9,0.85-7.83,1.12-11.76c0.25-3.55,0.5-7.1,0.75-10.65c0.03-0.36,0.05-0.75-0.13-1.07c-0.26-0.47-0.86-0.62-1.38-0.75
		c-4.89-1.24-9.07-4.99-10.84-9.71c-1.2-3.21-1.33-6.72-1.28-10.14c0.04-2.68,0.17-5.35,0.4-8.02c0.04-0.44,0.06-0.93-0.22-1.26
		c-0.22-0.26-0.58-0.36-0.91-0.43c-3.77-0.84-7.73-0.81-11.49,0.09"/>
	<g>
		<path d="M91.39,47.19c-0.08,4.83-0.17,9.66-0.25,14.49c-0.04,2.33-0.08,4.66-0.12,6.99c-0.01,0.37-0.19,1.34-0.03,1.68
			c0.16,0.35-0.05,0.15,0.28-0.03c-0.86,0.46-1.84,0.58-2.68,1.15c-3.29,2.22-4.46,6.4-5.51,10.01c-1.22,4.19-2.09,8.48-2.72,12.81
			c-1.28,8.87-1.61,17.82-1.84,26.77c-0.11,4.5-0.21,9-0.41,13.5c-0.1,2.24-0.35,4.48-0.39,6.72c-0.02,1.16,0.29,2.22,1.18,3
			c0.97,0.84,2.23,0.86,3.44,0.98c10.68,0.99,21.42,1.15,32.13,0.52c1.41-0.08,2.42-1.08,2.5-2.5c0.5-8.47,0.44-16.91,0.35-25.39
			c-0.04-4.1,0.17-8.15,0.84-12.2c0.7-4.21,1.43-8.39,1.82-12.65c0.39-4.22,0.64-8.45,0.94-12.67c0.13-1.88,0.7-4.26,0.09-6.09
			c-0.7-2.08-2.76-2.28-4.53-2.93c-2.72-1-5.12-3.03-6.64-5.49c-1.9-3.06-2.23-6.65-2.25-10.18c-0.01-2.34,0.08-4.68,0.23-7.01
			c0.15-2.32,0.66-4.86-1.85-6.12c-1.9-0.95-4.6-1-6.67-1.04c-2.38-0.05-4.78,0.25-7.1,0.78c-3.13,0.72-1.81,5.54,1.33,4.82
			c1.83-0.42,3.66-0.63,5.54-0.61c1.7,0.02,3.69,0.07,5.28,0.74c-0.37-0.21-0.74-0.43-1.1-0.64c-0.16-0.69-0.23-0.85-0.24-0.46
			c-0.01,0.21-0.03,0.43-0.05,0.64c-0.04,0.47-0.07,0.94-0.11,1.41c-0.06,0.86-0.11,1.73-0.15,2.59c-0.08,1.78-0.13,3.56-0.11,5.34
			c0.04,3.41,0.43,6.84,1.78,10c1.14,2.66,2.94,5.05,5.2,6.88c1.12,0.91,2.32,1.72,3.62,2.34c0.75,0.35,1.52,0.68,2.3,0.94
			c0.36,0.12,1.23,0.29,1.34,0.42c-0.21-0.37-0.43-0.74-0.64-1.1c0.23,0.65-0.06,1.84-0.11,2.58c-0.09,1.21-0.17,2.42-0.26,3.63
			c-0.15,2.19-0.31,4.37-0.46,6.56c-0.32,4.42-0.77,8.79-1.53,13.15c-0.76,4.4-1.42,8.77-1.5,13.24c-0.08,4.43,0.13,8.86,0.12,13.29
			c-0.01,5.07-0.18,10.15-0.48,15.21c0.83-0.83,1.67-1.67,2.5-2.5c-5.6,0.33-11.21,0.45-16.82,0.34c-2.72-0.05-5.44-0.16-8.16-0.32
			c-1.4-0.08-2.8-0.18-4.2-0.29c-0.74-0.06-1.48-0.12-2.22-0.19c-0.33-0.03-0.66-0.06-0.99-0.09c-0.16-0.02-0.33-0.03-0.49-0.05
			c-0.35-0.03-0.33-0.03,0.07-0.03c0.3,0.3,0.6,0.6,0.9,0.9c-0.05-0.1-0.11-0.21-0.16-0.31c0.11,0.42,0.23,0.84,0.34,1.26
			c-0.19-1.48,0.14-3.17,0.22-4.66c0.09-1.7,0.17-3.4,0.23-5.11c0.13-3.34,0.21-6.67,0.29-10.01c0.16-6.5,0.34-13.01,0.89-19.49
			c0.56-6.5,1.55-12.97,3.32-19.26c0.65-2.31,1.23-5.16,2.81-7.06c0.7-0.85,1.45-1.02,2.44-1.39c1.84-0.69,2.81-2.18,2.99-4.11
			c0.37-3.86,0.16-7.85,0.23-11.73c0.07-4,0.14-7.99,0.21-11.99C96.45,43.97,91.45,43.97,91.39,47.19L91.39,47.19z"/>
	</g>
</g>
<rect x="77.37" y="149.99" class="st1" width="40" height="12.75"/>
<text transform="matrix(1 0 0 1 77.3734 158.5107)" class="st2 st3">Juama</text>
</svg>
