<?xml version="1.0" encoding="utf-8"?>
<!-- Generator: Adobe Illustrator 25.4.1, SVG Export Plug-In . SVG Version: 6.00 Build 0)  -->
<svg version="1.1" id="Layer_1" xmlns="http://www.w3.org/2000/svg" xmlns:xlink="http://www.w3.org/1999/xlink" x="0px" y="0px"
	 viewBox="0 0 200 200" style="enable-background:new 0 0 200 200;" xml:space="preserve">
<style type="text/css">
	.st0{fill:none;}
	.st1{font-family:'MyriadPro-Regular';}
	.st2{font-size:17.1976px;}
</style>
<g>
	<g>
		<path d="M57.52,86.82c0.14-11.61,2.88-23.48,8.42-33.73c2.59-4.8,5.99-8.86,10.55-11.9c4.65-3.1,9.86-5.41,15.09-7.35
			c5.48-2.03,11.14-3.6,16.88-4.69c5.59-1.06,11.47-1.88,17.18-1.63c2.57,0.11,5.11,0.63,7.29,2.04c2.05,1.33,3.6,3.35,4.97,5.34
			c3.2,4.68,6.07,9.61,8.65,14.65c5.85,11.44,10.05,23.69,12.51,36.3c0.26,1.33,1.84,2.08,3.08,1.75c1.38-0.38,2.01-1.75,1.75-3.08
			c-2.34-11.95-6.25-23.54-11.53-34.51c-2.64-5.49-5.64-10.8-8.97-15.9c-3.22-4.93-6.89-9.51-12.89-10.96
			c-5.93-1.43-12.45-0.49-18.4,0.35c-6.17,0.87-12.27,2.28-18.19,4.23c-11.36,3.74-23.24,8.95-30.11,19.21
			C60,52.6,57.42,59.21,55.57,65.72c-1.95,6.85-2.96,13.98-3.05,21.09C52.48,90.04,57.48,90.04,57.52,86.82L57.52,86.82z"/>
	</g>
</g>
<g>
	<g>
		<path d="M158.64,86.18c0.01,3.83,0.01,7.66,0.02,11.5c0,1.87,0.02,3.73,0.01,5.6c0,0.73,0.15,2.61-0.78,2.93
			c1.03,0.58,2.05,1.16,3.08,1.75c-1.05-7.31-1.26-14.75-0.74-22.11c-1.64,0.22-3.27,0.44-4.91,0.66c0.57,4.2,0.43,8.49,0.34,12.72
			c-0.06,2.76,4.35,3.47,4.91,0.66c0.91-4.55,1.44-9.17,1.55-13.81c0.06-2.5-3.43-3.37-4.66-1.26c-3.33,5.7-5.43,12.08-7.79,18.21
			c1.61,0.44,3.21,0.89,4.82,1.33c1.34-5.39,2.68-10.78,4.03-16.17c-1.64-0.22-3.27-0.44-4.91-0.66c0.05,5.58,0.1,11.16,0.15,16.74
			c0.03,2.85,4.07,3.35,4.91,0.66c1.51-4.86,2.45-9.86,2.87-14.93c-1.67,0-3.33,0-5,0c0.36,6.54-0.69,12.96-3.06,19.07
			c1.61,0,3.21,0,4.82,0c-1.86-7.49-1.46-15.24-1.06-22.88c0.17-3.22-4.83-3.21-5,0c-0.42,8.09-0.73,16.27,1.24,24.21
			c0.64,2.59,3.99,2.14,4.82,0c2.51-6.47,3.62-13.47,3.24-20.4c-0.18-3.24-4.74-3.19-5,0c-0.38,4.63-1.31,9.17-2.69,13.6
			c1.64,0.22,3.27,0.44,4.91,0.66c-0.05-5.58-0.1-11.16-0.15-16.74c-0.02-2.77-4.22-3.45-4.91-0.66
			c-1.34,5.39-2.68,10.78-4.03,16.17c-0.33,1.31,0.42,2.71,1.75,3.08c1.41,0.39,2.59-0.48,3.08-1.75
			c2.21-5.74,4.17-11.68,7.29-17.02c-1.55-0.42-3.11-0.84-4.66-1.26c-0.1,4.2-0.55,8.36-1.37,12.48c1.64,0.22,3.27,0.44,4.91,0.66
			c0.11-4.71,0.12-9.37-0.52-14.05c-0.17-1.21-1.66-1.95-2.74-1.79c-1.28,0.19-2.08,1.18-2.17,2.46
			c-0.56,7.84-0.21,15.67,0.91,23.44c0.18,1.28,1.92,2.15,3.08,1.75c4.83-1.67,4.45-6.8,4.45-11.01c-0.01-4.61-0.01-9.23-0.02-13.84
			C163.64,82.97,158.64,82.96,158.64,86.18L158.64,86.18z"/>
	</g>
</g>
<g>
	<g>
		<path d="M51.47,86.82c0.09,5.38,0.17,10.77,0.26,16.15c0.04,2.44,0.03,4.9,0.31,7.33c0.27,2.26,0.55,5.38,2.34,7
			c1.77,1.61,5.06,1.01,7.27,0.99c1.3-0.01,2.61-0.12,3.61-1.06c0.99-0.94,1.29-2.15,1.42-3.46c0.52-5.27-0.34-10.68-0.82-15.93
			c-0.46-5.05-0.75-10.5-3.92-14.7c-1.53-2.03-4.38-1.29-4.66,1.26c-1.05,9.57-0.16,19.19-0.48,28.78c1.67,0,3.33,0,5,0
			c0.01-6.98,0.02-13.96,0.04-20.94c-1.67,0-3.33,0-5,0c0.35,4.64,0.7,9.27,1.04,13.91c0.09,1.24,0.88,2.3,2.17,2.46
			c1.12,0.13,2.53-0.55,2.74-1.79c0.32-1.89,0.46-3.75,0.33-5.66c-1.67,0-3.33,0-5,0c0.04,0.45,0.07,0.9,0.11,1.36
			c0.11,1.35,1.07,2.5,2.5,2.5c1.27,0,2.61-1.15,2.5-2.5c-0.04-0.45-0.07-0.9-0.11-1.36c-0.11-1.35-1.07-2.5-2.5-2.5
			c-1.28,0-2.59,1.15-2.5,2.5c0.1,1.45,0.09,2.9-0.15,4.33c1.64,0.22,3.27,0.44,4.91,0.66c-0.35-4.64-0.7-9.27-1.04-13.91
			c-0.24-3.17-4.99-3.26-5,0c-0.01,6.98-0.02,13.96-0.04,20.94c-0.01,3.23,4.89,3.21,5,0c0.32-9.59-0.57-19.21,0.48-28.78
			c-1.55,0.42-3.11,0.84-4.66,1.26c2.79,3.7,2.9,8.46,3.3,12.9c0.24,2.67,0.51,5.34,0.71,8.02c0.1,1.4,0.18,2.81,0.17,4.22
			c0,0.66,0.18,2.69-0.22,3c0.37-0.21,0.74-0.43,1.1-0.64c-1.06,0.41-2.64,0.14-3.78,0.14c-0.3,0-0.61,0-0.91,0
			c-0.41,0-1.14-0.21-0.48,0.24c0.69,0.46,0.24,0.27,0.27,0.01c0.04-0.29-0.24-0.77-0.32-1.07c-0.66-2.54-0.67-5.17-0.72-7.77
			c-0.1-5.96-0.19-11.93-0.29-17.89C56.42,83.6,51.42,83.59,51.47,86.82L51.47,86.82z"/>
	</g>
</g>
<rect x="59.81" y="123.43" class="st0" width="96.87" height="33.7"/>
<text transform="matrix(1.0532 0 0 1 59.8052 135.6436)" class="st1 st2">guuloggeet</text>
<g>
	<g>
		<path d="M54.4,89.29c0.28,5.08-0.67,10.24,0.84,15.21c0.38,1.25,1.77,2.17,3.08,1.75c1.26-0.41,2.15-1.74,1.75-3.08
			c-0.18-0.6-0.34-1.21-0.45-1.83c-0.05-0.26-0.1-0.53-0.13-0.79c0.05,0.41-0.03-0.32-0.03-0.4c-0.11-1.21-0.13-2.43-0.11-3.64
			c0.03-2.41,0.19-4.81,0.06-7.22c-0.07-1.3-1.1-2.56-2.5-2.5C55.6,86.85,54.32,87.89,54.4,89.29L54.4,89.29z"/>
	</g>
</g>
</svg>
